<svg width="1299" height="150" viewBox="0 0 1299 150" fill="none" xmlns="http://www.w3.org/2000/svg">
<g opacity="0.09">
<path d="M1 112.074L308.634 61.2731L359.978 80.9372H386.505L406.615 69.6663L430.148 80.9372L526.845 73.2634L598.298 98.4431L642.368 69.6663L706.12 73.2634L773.722 61.2731L952.142 38.7312L1011.19 50.0021L1065.1 20.5059L1102.75 34.6545L1115.16 20.5059L1156.66 7.79614L1201.59 34.6545L1297 3V149.042" stroke="#000000" stroke-width="3"/>
<path opacity="0.5" d="M308.634 62.2307L1 111.78V150H1297V3.95766L1201.59 35.6122L1156.66 8.75379L1115.16 21.4636L1102.75 35.6122L1065.1 21.4636L1011.19 50.9598L952.142 39.6889L773.722 62.2307L706.12 74.221L642.368 70.6239L598.298 99.4008L526.845 74.221L430.148 81.8949L406.615 70.6239L386.505 81.8949H359.978L308.634 62.2307Z" fill="#cfcfcf"/>
</g>
</svg>
